<?xml version="1.0" standalone="no"?>
<!DOCTYPE svg PUBLIC "-//W3C//DTD SVG 20010904//EN"
 "http://www.w3.org/TR/2001/REC-SVG-20010904/DTD/svg10.dtd">
<svg version="1.0" xmlns="http://www.w3.org/2000/svg"
 width="1920.000000pt" height="1080.000000pt" viewBox="0 0 1920.000000 1080.000000"
 preserveAspectRatio="xMidYMid meet">

<g transform="translate(0.000000,1080.000000) scale(0.100000,-0.100000)"
fill="#000000" stroke="none">
<path d="M1270 7109 c0 -5 27 -72 59 -147 103 -239 171 -396 193 -442 53 -114
87 -192 184 -417 57 -134 120 -278 140 -320 20 -43 43 -96 52 -118 8 -22 18
-44 22 -50 5 -5 24 -50 45 -100 44 -108 353 -814 426 -972 10 -24 19 -45 19
-47 0 -3 22 -52 50 -110 27 -58 63 -139 81 -179 17 -39 43 -97 56 -127 14 -30
52 -116 84 -190 33 -74 63 -142 68 -150 7 -13 72 -15 492 -15 l483 0 13 25 c7
14 24 50 37 80 73 171 162 373 188 430 17 36 55 121 85 190 30 69 67 152 82
185 16 33 43 94 61 135 18 41 42 95 53 120 11 25 52 119 92 210 40 91 172 390
294 665 242 545 244 550 265 598 8 17 40 88 71 157 32 69 77 170 100 225 24
55 68 158 99 228 31 71 56 132 56 138 0 15 -767 12 -777 -3 -11 -18 -67 -145
-117 -268 -39 -94 -95 -224 -131 -305 -7 -16 -34 -79 -58 -140 -25 -60 -57
-137 -72 -170 -15 -33 -45 -103 -67 -155 -126 -303 -228 -545 -298 -705 -29
-66 -78 -183 -110 -260 -32 -77 -81 -196 -110 -265 -28 -69 -86 -206 -130
-305 -43 -99 -80 -188 -84 -197 -10 -32 -22 -19 -54 55 -97 224 -301 702 -413
967 -22 52 -51 120 -65 151 -13 31 -24 59 -24 63 0 3 -16 40 -35 81 -20 42
-49 108 -64 148 -16 40 -122 293 -236 562 -243 575 -282 667 -302 718 l-16 37
-394 0 c-269 0 -393 -3 -393 -11z"/>
<path d="M2333 7103 c2 -10 161 -380 352 -823 191 -443 394 -915 452 -1050 58
-135 109 -248 112 -252 4 -4 48 88 98 205 50 116 242 565 428 997 186 432 353
820 371 863 l33 77 -926 0 c-876 0 -925 -1 -920 -17z"/>
<path d="M5599 7118 c-4 -14 -9 -3357 -5 -3374 l6 -24 403 2 402 3 3 1698 2
1697 -405 0 c-223 0 -405 -1 -406 -2z"/>
<path d="M7075 7108 c-3 -7 -4 -771 -3 -1698 l3 -1685 385 -3 c212 -1 395 0
408 3 l22 5 0 600 0 600 165 0 165 0 21 -42 c12 -24 74 -137 139 -253 64 -115
164 -295 222 -400 58 -104 145 -262 194 -350 l89 -160 443 -3 c333 -2 442 1
442 10 0 11 -8 25 -105 193 -44 77 -126 218 -160 277 -187 325 -471 824 -473
832 -1 6 40 32 92 59 279 142 448 355 532 672 27 102 27 438 0 540 -54 207
-135 355 -261 480 -154 153 -323 239 -600 307 -88 21 -106 22 -903 25 -658 3
-813 1 -817 -9z m1490 -678 c131 -42 212 -108 262 -217 34 -76 44 -240 19
-326 -39 -135 -152 -239 -300 -277 -70 -18 -111 -20 -368 -20 l-288 0 0 429 0
430 53 4 c28 3 165 3 302 2 226 -3 257 -5 320 -25z"/>
<path d="M10252 5423 l3 -1698 1120 0 1120 0 3 338 2 337 -715 0 -715 0 0 350
0 350 593 2 592 3 0 335 0 335 -590 0 -590 0 -3 332 -2 333 697 2 698 3 0 335
0 335 -1108 3 -1107 2 2 -1697z"/>
<path d="M13045 7108 c-3 -7 -4 -771 -3 -1698 l3 -1685 1114 -3 c864 -2 1116
1 1122 10 6 9 5 609 0 661 -1 4 -320 7 -711 7 l-710 0 0 350 0 350 594 0 c594
0 595 0 601 21 8 23 5 600 -3 637 l-4 22 -417 0 c-229 0 -496 0 -593 0 l-178
0 0 330 0 330 700 0 700 0 0 340 0 340 -1105 0 c-875 0 -1107 -3 -1110 -12z"/>
<path d="M15835 7108 c-3 -7 -4 -771 -2 -1698 l2 -1685 1102 -3 1101 -2 4 332
c2 195 0 338 -6 346 -7 10 -151 12 -695 12 l-686 -1 -5 1353 -5 1353 -403 3
c-317 2 -404 0 -407 -10z"/>
</g>
</svg>
